<?xml version="1.0" encoding="utf-8"?>
<!-- Generator: Adobe Illustrator 28.2.0, SVG Export Plug-In . SVG Version: 6.00 Build 0)  -->
<svg version="1.1" id="full_color" xmlns="http://www.w3.org/2000/svg" xmlns:xlink="http://www.w3.org/1999/xlink" x="0px" y="0px"
	 viewBox="0 0 394 124.7" style="enable-background:new 0 0 394 124.7;" xml:space="preserve">
<style type="text/css">
	.st0{fill:#A5B27B;}
	.st1{fill:#FFFFFF;}
</style>
<path class="st0" d="M62.3,98.2c0-4.2-4.7,15.5-27.4,15.5c-14.7,0-24.9-9.4-24.9-23.6c0-13.5,9.3-26.7,14.9-33.5
	c2.2,3.2,7.4,11.2,8.5,13c1.4,2.3,3.5,8.1-0.2,8.7c-5.1,0.9-5.3-8.2-5.5-10.6c-0.1-0.8-1.3-0.9-1.7-0.2c-1.6,2.9-2.7,11.9,2.1,15.8
	c4.3,3.6,10.4,1.7,11.8-3.6c3.8,6.6,4.8,12.6,5.3,16.7c0.1,0.7,1.1,0.7,1.2,0c2.3-13.5-4-22.9-6.1-27.1S29.5,52.8,28,50.3
	s-5.6-9.7-5.6-17.4C22.4,21.2,32,10,33.8,10s12,9.3,12,23.3c0,5.3-1.2,9.2-2.6,12c-0.5,0.9-1.7,1-2.3,0.1c-5.6-8.7-5.6-10.5-2.1-13
	c2.3-1.7-9-6.4-8.6,3.3c0.2,5.1,7.4,15.5,9.2,17.5s12-2.2,12-20.7S35.5,1.7,33.5,1.7c-1.9,0-17.8,15.1-17.8,30.8
	c0,7.8,2.8,14.5,6.1,19.7C21.4,52.5,1.5,68.3,1.8,92C2,110,14,123.1,33.9,123.1C51.3,123.1,62.3,110.7,62.3,98.2z"/>
<g>
	<g>
		<g>
			<g>
				<path class="st1" d="M326.4,56.8c0.9-0.4,1.9-0.8,3.1-1c1.2-0.3,2.6-0.6,4-0.8c1.4-0.3,2.8-0.5,4.3-0.6s2.9-0.2,4.3-0.2
					c0.4-0.7,0.7-1.5,1-2.4s0.4-1.8,0.4-2.8c0-2.8-0.9-4.8-2.8-6.1c-1.9-1.2-4.4-1.9-7.6-1.9c-1.9,0-3.9,0.1-5.8,0.5
					c-1.9,0.3-3.8,0.7-5.6,1.3c-1.8,0.5-3.5,1.1-5,1.8c-1.6,0.7-2.9,1.5-4,2.4s-1.9,1.8-2.5,2.9c-0.6,1.1-0.8,2.4-0.8,4v30
					c0,1.7,0.2,3,0.6,4s1.1,1.9,1.9,2.5s1.8,1,3,1.2s2.5,0.3,3.9,0.3c1.5,0,3-0.1,4.5-0.3c1.4-0.2,2.5-0.4,3.2-0.6V56.8H326.4z
					 M247.3,60.6c0-6.5-1.9-11.4-5.5-14.8c-3.7-3.3-8.9-4.9-15.5-4.9c-2.1,0-4.1,0.2-5.9,0.6c-1.8,0.4-3.1,0.8-3.9,1.2v-9.8
					c0-1.7-0.2-3-0.7-4c-0.4-1-1-1.9-1.8-2.5s-1.8-1-3-1.2s-2.5-0.3-4-0.3s-2.9,0.1-4.3,0.4c-1.4,0.2-2.5,0.4-3.3,0.5v58
					c0,1.7,0.2,3,0.6,4c0.4,1,1,1.9,1.9,2.5c0.8,0.6,1.8,1,2.9,1.2c1.2,0.2,2.5,0.3,4,0.3s3-0.1,4.5-0.3c1.4-0.2,2.5-0.4,3.2-0.6
					v-35c0.7-0.5,1.7-0.9,2.9-1.2s2.5-0.5,3.8-0.5c2,0,3.7,0.5,5.1,1.6c1.4,1.1,2,3,2,5.8v22.2c0,1.7,0.2,3,0.6,4
					c0.4,1,1.1,1.9,1.9,2.5c0.8,0.6,1.8,1,3,1.2s2.5,0.3,3.9,0.3c1.5,0,3-0.1,4.5-0.3c1.4-0.2,2.5-0.4,3.2-0.6L247.3,60.6
					L247.3,60.6z M158.7,41.4c-2.6,0.3-4.9,0.9-6.8,1.6c-1.7,0.7-3,1.6-3.9,2.7c-0.8,1-1.3,2.4-1.3,4.1c0,1.3,0.3,2.6,0.9,3.9
					c0.6,1.2,1.3,2.1,2.2,2.8c1.9-0.8,4.1-1.5,6.5-2s4.9-0.8,7.4-0.8c3.2,0,5.7,0.4,7.4,1.3c1.7,0.8,2.5,2.2,2.5,4.2v0.7l-13.1,1.4
					c-5.7,0.6-10,2.1-12.7,4.6s-4.1,6-4.1,10.6c0,2.7,0.5,5.1,1.7,7.2c1.1,2.1,2.7,3.8,4.7,5.1c2,1.3,4.5,2.4,7.3,3
					c2.9,0.7,6.2,1,8.6,1c5.9,0,9.3-2.5,9.3-2.5c1.3,1.3,7,2.9,14.8,0.7c0-1.5,0-7.5,0-9.2V59.2c0-3.1-0.6-5.9-1.7-8.2
					c-1.1-2.3-2.8-4.2-4.8-5.7c-2.1-1.5-4.6-2.6-7.6-3.3s-6.3-1.1-9.8-1.1C163.9,40.9,161.4,41.1,158.7,41.4z M161.7,79
					c-1-0.8-1.5-1.9-1.5-3.3c0-1.3,0.6-2.3,1.8-3s2.7-1.1,4.6-1.2l7.2-0.6v8c-0.7,0.4-1.7,0.7-3,0.9c-1.4,0.2-2.6,0.4-3.8,0.4
					C164.5,80.2,162.8,79.8,161.7,79z M77.8,42.7c-2.5-2.6-10.5-1.8-14.8-0.9v42c0,1.7,0.2,3,0.6,4s1.1,1.9,1.9,2.5
					c0.8,0.6,1.8,1,3,1.2s2.5,0.3,3.9,0.3c1.5,0,3-0.1,4.5-0.3c1.4-0.2,2.5-0.4,3.2-0.6V55.8c0.6-0.3,1.3-0.7,2.2-1
					c0.9-0.4,1.9-0.5,3.1-0.5c1.7,0,3.2,0.5,4.5,1.3c1.2,0.9,1.8,2.4,1.8,4.4v23.9c0,1.7,0.2,3,0.7,4c0.4,1,1,1.9,1.8,2.5
					s1.8,1,3,1.2s2.5,0.3,4,0.3s2.9-0.1,4.3-0.3c1.4-0.2,2.5-0.4,3.3-0.6V57.6c0-0.2,0-0.4,0-0.6c0-0.2,0-0.5-0.1-0.8
					c0.5-0.5,1.3-0.9,2.4-1.4c1.1-0.4,2.1-0.6,3-0.6c1.9,0,3.5,0.5,4.6,1.3c1.1,0.9,1.7,2.4,1.7,4.4v23.9c0,1.7,0.2,3,0.6,4
					s1,1.9,1.9,2.5c0.8,0.6,1.8,1,2.9,1.2c1.2,0.2,2.5,0.3,4,0.3s3-0.1,4.5-0.3c1.4-0.2,2.5-0.4,3.2-0.6V59.4c0-3.4-0.6-6.3-1.7-8.7
					c-1.1-2.4-2.7-4.3-4.5-5.7c-1.9-1.4-4.1-2.5-6.5-3.1c-2.4-0.7-4.9-1-7.5-1c-3.5,0-6.5,0.4-9,1.3c-2.5,0.9-3.8,1.4-5.8,2.7
					c-2.6-1.8-4.6-2.6-7.4-3.3c-3.3-0.8-6-0.8-9.1-0.6C83.2,41.2,81.1,41.4,77.8,42.7z"/>
			</g>
		</g>
		<g>
			<g>
				<path class="st1" d="M298.7,51.1c-1.1-2.3-2.8-4.2-4.8-5.7c-2.1-1.5-4.6-2.6-7.6-3.3S280,41,276.5,41c-2.3,0-4.8,0.2-7.5,0.5
					c-2.6,0.3-4.9,0.9-6.8,1.6c-1.7,0.7-3,1.6-3.9,2.7c-0.8,1-1.3,2.4-1.3,4.1c0,1.3,0.3,2.6,0.9,3.9c0.6,1.2,1.3,2.1,2.2,2.8
					c1.9-0.8,4.1-1.5,6.5-2s4.9-0.8,7.4-0.8c3.2,0,5.7,0.4,7.4,1.3c1.7,0.8,2.5,2.2,2.5,4.2V60l-13.1,1.4c-5.7,0.6-10,2.1-12.7,4.6
					c-2.7,2.5-4.1,6-4.1,10.6c0,2.7,0.5,5.1,1.7,7.2c1.1,2.1,2.7,3.8,4.7,5.1c2,1.3,4.5,2.4,7.3,3c2.9,0.7,6.2,1,8.6,1
					c5.9,0,9.3-2.5,9.3-2.5c1.3,1.3,7,2.9,14.8,0.7c0-1.5,0-7.5,0-9.2V59.2C300.4,56.1,299.8,53.4,298.7,51.1z M284,78.9
					c-0.7,0.4-1.7,0.7-3,0.9c-1.4,0.2-2.6,0.4-3.8,0.4c-2.5,0-4.2-0.4-5.3-1.3c-1-0.8-1.5-1.9-1.5-3.3c0-1.3,0.6-2.3,1.8-3
					c1.2-0.7,2.7-1.1,4.6-1.2l7.2-0.6L284,78.9L284,78.9z"/>
				<path class="st1" d="M390.5,51.1c-1.1-2.3-2.8-4.2-4.8-5.7c-2.1-1.5-4.6-2.6-7.6-3.3s-6.3-1.1-9.8-1.1c-2.3,0-4.8,0.2-7.5,0.5
					c-2.6,0.3-4.9,0.9-6.8,1.6c-1.7,0.7-3,1.6-3.9,2.7c-0.8,1-1.3,2.4-1.3,4.1c0,1.3,0.3,2.6,0.9,3.9c0.6,1.2,1.3,2.1,2.2,2.8
					c1.9-0.8,4.1-1.5,6.5-2s4.9-0.8,7.4-0.8c3.2,0,5.7,0.4,7.4,1.3c1.7,0.8,2.5,2.2,2.5,4.2V60l-13.1,1.4c-5.7,0.6-10,2.1-12.7,4.6
					s-4.1,6-4.1,10.6c0,2.7,0.5,5.1,1.7,7.2c1.1,2.1,2.7,3.8,4.7,5.1c2,1.3,4.5,2.4,7.3,3c2.9,0.7,6.2,1,8.6,1
					c5.9,0,9.3-2.5,9.3-2.5c1.3,1.3,7,2.9,14.8,0.7c0-1.5,0-7.5,0-9.2V59.2C392.2,56.1,391.7,53.4,390.5,51.1z M375.8,78.9
					c-0.7,0.4-1.7,0.7-3,0.9c-1.4,0.2-2.6,0.4-3.8,0.4c-2.5,0-4.2-0.4-5.3-1.3c-1-0.8-1.5-1.9-1.5-3.3c0-1.3,0.6-2.3,1.8-3
					c1.2-0.7,2.7-1.1,4.6-1.2l7.2-0.6L375.8,78.9L375.8,78.9z"/>
			</g>
		</g>
	</g>
</g>
</svg>
